<svg width="416" height="178" viewBox="0 0 416 178" fill="none" xmlns="http://www.w3.org/2000/svg">
<path d="M170.408 163.37H156.024V159.476C154.944 160.125 153.821 160.687 152.654 161.163C149.112 162.634 145.441 163.37 141.639 163.37C137.838 163.37 134.123 162.634 130.624 161.163C127.082 159.692 123.972 157.616 121.294 154.89C118.616 152.207 116.499 149.049 115.031 145.545C113.562 141.997 112.828 138.319 112.828 134.512C112.828 130.705 113.562 126.984 115.031 123.479C116.499 119.931 118.573 116.816 121.294 114.134C124.015 111.451 127.125 109.331 130.624 107.86C134.166 106.389 137.838 105.654 141.639 105.654C145.441 105.654 149.155 106.389 152.654 107.86C153.821 108.336 154.944 108.899 156.024 109.548V105.654H170.408V163.37ZM141.596 120.105C137.622 120.105 134.21 121.532 131.402 124.345C128.594 127.157 127.169 130.575 127.169 134.555C127.169 138.536 128.594 141.954 131.402 144.766C134.21 147.578 137.622 149.006 141.596 149.006C145.57 149.006 148.983 147.578 151.79 144.766C154.598 141.954 156.024 138.536 156.024 134.555C156.024 130.575 154.598 127.157 151.79 124.345C148.983 121.532 145.57 120.105 141.596 120.105Z" fill="#642C90"/>
<path d="M224.446 159.476C223.366 160.125 222.243 160.687 221.076 161.163C217.534 162.634 213.863 163.37 210.062 163.37C206.26 163.37 202.545 162.634 199.047 161.163C195.504 159.692 192.394 157.616 189.716 154.89C187.038 152.164 184.922 149.049 183.453 145.545C181.984 141.997 181.25 138.319 181.25 134.512C181.25 130.705 181.984 126.984 183.453 123.479C184.922 119.931 186.995 116.816 189.716 114.134C192.438 111.451 195.548 109.331 199.047 107.86C202.589 106.389 206.26 105.654 210.062 105.654C213.863 105.654 217.578 106.389 221.076 107.86C222.243 108.336 223.366 108.899 224.446 109.548V91.2466H238.83V163.37H224.446V159.476ZM210.018 148.963C213.992 148.963 217.405 147.535 220.213 144.723C223.02 141.91 224.446 138.492 224.446 134.512C224.446 130.531 223.02 127.114 220.213 124.301C217.405 121.489 213.992 120.061 210.018 120.061C206.044 120.061 202.632 121.489 199.824 124.301C197.016 127.114 195.591 130.531 195.591 134.512C195.591 138.492 197.016 141.91 199.824 144.723C202.632 147.535 206.044 148.963 210.018 148.963Z" fill="#642C90"/>
<path d="M307.252 163.197H292.868V159.303C291.788 159.952 290.665 160.514 289.499 160.99C285.957 162.461 282.285 163.197 278.484 163.197C274.683 163.197 270.968 162.461 267.469 160.99C263.927 159.519 260.817 157.442 258.139 154.717C255.46 151.991 253.344 148.876 251.875 145.371C250.406 141.824 249.672 138.146 249.672 134.339C249.672 130.531 250.406 126.811 251.875 123.306C253.344 119.758 255.417 116.643 258.139 113.961C260.86 111.278 263.97 109.158 267.469 107.687C271.011 106.216 274.683 105.481 278.484 105.481C282.285 105.481 286 106.216 289.499 107.687C290.665 108.163 291.788 108.726 292.868 109.375V105.481H307.252V163.197ZM278.441 119.931C274.467 119.931 271.054 121.359 268.246 124.171C265.439 126.984 264.013 130.402 264.013 134.382C264.013 138.362 265.439 141.78 268.246 144.593C271.054 147.405 274.467 148.833 278.441 148.833C282.415 148.833 285.827 147.405 288.635 144.593C291.443 141.78 292.868 138.362 292.868 134.382C292.868 130.402 291.443 126.984 288.635 124.171C285.827 121.359 282.415 119.931 278.441 119.931Z" fill="#642C90"/>
<path d="M332.436 109.375C333.515 108.726 334.638 108.163 335.805 107.687C339.347 106.216 343.019 105.481 346.82 105.481C350.621 105.481 354.336 106.216 357.835 107.687C361.377 109.158 364.487 111.235 367.165 113.961C369.843 116.687 371.96 119.802 373.428 123.306C374.897 126.854 375.631 130.531 375.631 134.339C375.631 138.146 374.897 141.867 373.428 145.371C371.96 148.919 369.886 152.034 367.165 154.717C364.444 157.399 361.334 159.519 357.835 160.99C354.293 162.461 350.621 163.197 346.82 163.197C343.019 163.197 339.304 162.461 335.805 160.99C334.638 160.514 333.515 159.952 332.436 159.303V177.604H318.051V105.481H332.436V109.375ZM346.863 119.931C342.889 119.931 339.476 121.359 336.669 124.171C333.861 126.984 332.436 130.402 332.436 134.382C332.436 138.362 333.861 141.78 336.669 144.593C339.476 147.405 342.889 148.833 346.863 148.833C350.837 148.833 354.249 147.405 357.057 144.593C359.865 141.78 361.29 138.362 361.29 134.382C361.29 130.402 359.865 126.984 357.057 124.171C354.249 121.359 350.837 119.931 346.863 119.931Z" fill="#642C90"/>
<path d="M400.858 105.654V91.2466H386.43V121.489V163.37H400.858V159.476V134.512V122.354V120.105H415.242V105.654H400.858Z" fill="#642C90"/>
<path d="M121.251 0H76.7158V45.8612C88.0331 50.7935 97.8818 62.129 102.201 77.0122C103.497 81.5118 104.232 86.0114 104.404 90.3812H121.812C146.823 90.3812 167.082 69.96 166.909 44.8661C166.736 19.9453 146.132 0.0432663 121.251 0.0432663V0Z" fill="#642C90"/>
<path d="M137.968 44.8661C145.411 44.8661 151.445 38.8225 151.445 31.3674C151.445 23.9122 145.411 17.8686 137.968 17.8686C130.524 17.8686 124.49 23.9122 124.49 31.3674C124.49 38.8225 130.524 44.8661 137.968 44.8661Z" fill="white"/>
<path d="M140.775 40.1935C146.668 40.1935 151.445 35.409 151.445 29.507C151.445 23.605 146.668 18.8204 140.775 18.8204C134.883 18.8204 130.106 23.605 130.106 29.507C130.106 35.409 134.883 40.1935 140.775 40.1935Z" fill="#642C90"/>
<path d="M144.922 31.8C147.689 31.8 149.933 29.553 149.933 26.7812C149.933 24.0094 147.689 21.7625 144.922 21.7625C142.155 21.7625 139.911 24.0094 139.911 26.7812C139.911 29.553 142.155 31.8 144.922 31.8Z" fill="white"/>
<path d="M98.2274 91.0302V90.8571C98.2274 90.8571 98.0978 89.8621 98.0546 89.3429C97.0611 81.5984 94.9013 74.6327 91.5753 68.7486C86.1758 59.1437 77.191 51.5723 65.4849 46.9429C60.215 45.0825 54.7724 44.1739 49.2433 44.1739H48.5954C42.0296 44.2604 35.4206 45.7314 29.4596 48.3706C19.9997 52.5674 11.9653 59.8359 6.82495 68.8784C6.22021 69.96 5.65865 71.0849 5.1403 72.1665C4.88113 72.6857 4.66515 73.1617 4.40597 73.6808C0.0431897 82.4637 0.0863855 97.2172 0.0863855 97.8229L0 121.489C0 123.739 -6.25968e-06 125.123 0.0863855 125.945H0C0.604742 139.098 7.94804 150.693 19.1358 156.144C23.5418 158.567 28.3797 159.736 33.1312 159.736C41.2089 159.736 49.1137 156.404 54.6428 150.174C59.4807 144.722 61.9861 137.67 61.5541 130.834C61.1654 124.691 58.3576 119.066 53.6493 114.956C45.3557 107.774 33.8656 107.644 26.3927 114.74C22.2027 118.85 20.2157 124.258 20.9068 129.623C21.5115 134.425 24.3193 138.622 28.5525 141.045C31.1442 142.559 34.2975 143.295 37.278 142.602C39.9994 141.997 42.5047 140.223 44.0598 137.93C44.103 137.843 44.1894 137.757 44.2326 137.67C45.0101 136.416 45.4853 135.074 45.658 133.733C46.0036 130.575 44.6213 127.546 41.684 125.686C41.5544 125.599 41.4248 125.513 41.2521 125.426L41.0361 125.296C40.4313 124.95 39.6106 125.037 39.0491 125.513C38.4875 125.989 38.142 126.594 38.0124 127.33C37.926 127.936 38.1852 128.541 38.7035 128.887C40.3017 129.882 40.2586 132.046 39.4378 133.56C39.0923 134.209 38.6171 134.815 37.9692 135.161C36.5005 135.983 34.7727 135.853 33.304 135.161C31.4898 134.252 30.1507 132.825 29.6756 130.834C28.8548 127.503 30.0211 123.825 32.6561 121.662C36.7597 118.244 42.332 118.72 46.522 122.83C48.8977 125.167 50.1504 128.109 50.1936 131.31C50.1936 135.031 48.5522 138.838 45.658 141.78C39.7834 147.751 31.0578 147.318 25.7447 143.814C17.6239 139.271 13.7795 129.233 16.544 119.975C18.1423 114.74 21.6843 109.98 26.6087 106.606C32.9153 102.322 40.6473 101.025 47.6882 103.015C62.418 108.293 64.9666 118.201 65.5281 127.243C65.7873 131.137 67.5583 136.545 71.7483 139.098C76.4999 141.997 82.5473 142.429 87.5148 140.309C90.7977 138.925 93.6055 136.502 95.5061 133.473C96.7156 131.57 97.5363 129.32 97.9251 127.07C98.1842 125.469 98.2274 122.311 98.2706 122.138V91.16L98.2274 91.0302Z" fill="#642C90"/>
</svg>
